# xmcd
#
# Track frame offsets:
#	150
#	18642
#	35292
#	47130
#	57227
#	76905
#	92257
#	104605
#	112640
#	118695
#	137437
#	150297
#	162227
#	171325
#	184875
#	202410
#	215400
#	224890
#	236810
#	255700
#	272450
#	288450
#	298392
#	316625
#
# Disc length: 4422 seconds
#
# Revision: 0
# Processed by: cddbd v1.5.2PL0 Copyright (c) Steve Scherf et al.
# Submitted via: EZCDAudioConverter 5.0.5.1
#
DISCID=61114418
DTITLE=Tilt O' The Kilt "Volume 1"
DYEAR=1991
DGENRE=
TTITLE0=Alexander Brothers - The Flower of Scotland
TTITLE1=Andy Stewart - A Scottish Soldier
TTITLE2=Will Star - Scotland Reels
TTITLE3=Colin Stuart - The Tartan
TTITLE4=Calum Kennedy - The Dark Island
TTITLE5=Alasdair Gillies - Mary of Argyl
TTITLE6=Military Band and Pipes and Drums of Royal Scots Dragoon Guards - Amazing 
TTITLE6=Grace
TTITLE7=Royal Scots Band - Skye Boat Song
TTITLE8=Pipes and Drums 1st Batallion of The Black Watch - Scotland the Brave
TTITLE9=The Royal Scots - Quick March
TTITLE10=Royal Scots Band - Portland Hills
TTITLE11=Military Band and Pipes and Drums of Royal Scots Dragoon Guards - Theme i
TTITLE11=n Glory
TTITLE12=Andy Stewart - Donald Where's Your Troosers
TTITLE13=Calum Kennedy - Bonny Lass O-Fyvie
TTITLE14=Alexander Brothers - These are the Mountains
TTITLE15=Glen Daly - Auld Scots Mither O' Mine
TTITLE16=Alexander Morrison - Here's to the Gordons
TTITLE17=Kim Macleod - Gay Gordons
TTITLE18=Alexander Brothers - Songs of the West - Medley
TTITLE19=Will Star - Selection of Jigs
TTITLE20=Alasdair Gillies - Tabermory Bay
TTITLE21=Jim Macleod - My Highland Home
TTITLE22=Colin Stuart - Star O'Robbie Burns
TTITLE23=Glen Daly - Auld Land Syne
EXTD=
EXTT0=
EXTT1=
EXTT2=
EXTT3=
EXTT4=
EXTT5=
EXTT6=
EXTT7=
EXTT8=
EXTT9=
EXTT10=
EXTT11=
EXTT12=
EXTT13=
EXTT14=
EXTT15=
EXTT16=
EXTT17=
EXTT18=
EXTT19=
EXTT20=
EXTT21=
EXTT22=
EXTT23=
PLAYORDER=
